<?xml version="1.0" standalone="no"?>
<!DOCTYPE svg PUBLIC "-//W3C//DTD SVG 20010904//EN"
 "http://www.w3.org/TR/2001/REC-SVG-20010904/DTD/svg10.dtd">
<svg version="1.0" xmlns="http://www.w3.org/2000/svg"
 width="304.000000pt" height="215.000000pt" viewBox="0 0 304.000000 215.000000"
 preserveAspectRatio="xMidYMid meet">

<g transform="translate(0.000000,215.000000) scale(0.100000,-0.100000)"
fill="#000000" stroke="none">
<path d="M0 1075 l0 -1075 1520 0 1520 0 0 1075 0 1075 -1520 0 -1520 0 0
-1075z m760 962 c8 -7 31 -31 50 -52 30 -34 27 -33 -20 10 -30 28 -57 51 -59
53 -2 1 0 2 5 2 5 0 16 -6 24 -13z m605 -59 c-3 -13 -9 -43 -14 -68 l-9 -45
-1 52 c-1 28 2 58 5 67 9 24 25 19 19 -6z m-618 -20 c-3 -8 -6 -5 -6 6 -1 11
2 17 5 13 3 -3 4 -12 1 -19z m680 -50 c-3 -8 -6 -5 -6 6 -1 11 2 17 5 13 3 -3
4 -12 1 -19z m-648 -33 c0 -5 -4 -3 -9 5 -5 8 -9 22 -9 30 0 16 17 -16 18 -35z
m126 25 c10 -11 16 -20 13 -20 -3 0 -13 9 -23 20 -10 11 -16 20 -13 20 3 0 13
-9 23 -20z m554 -75 c0 -13 -5 -8 -14 15 -18 46 -18 61 0 30 8 -14 14 -34 14
-45z m-494 25 c10 -11 16 -20 13 -20 -3 0 -13 9 -23 20 -10 11 -16 20 -13 20
3 0 13 -9 23 -20z m372 -67 c-2 -16 -4 -5 -4 22 0 28 2 40 4 28 2 -13 2 -35 0
-50z m-261 -20 c-5 -5 -86 54 -86 63 0 2 21 -11 46 -27 25 -17 43 -33 40 -36z
m-236 -23 c12 -23 12 -24 -3 -11 -10 7 -17 20 -17 29 0 18 3 16 20 -18z m283
-4 c3 3 10 -4 17 -15 6 -12 17 -21 24 -21 8 0 17 -7 20 -16 6 -15 -80 41 -92
61 -3 5 1 4 10 -2 8 -7 17 -10 21 -7z m387 -16 c18 -43 7 -47 -13 -5 -9 19
-13 35 -8 35 5 0 14 -14 21 -30z m34 -86 c3 -8 2 -12 -4 -9 -6 3 -10 10 -10
16 0 14 7 11 14 -7z m-124 -71 c0 -8 -36 16 -55 38 -16 19 -13 18 18 -5 20
-16 37 -30 37 -33z m-470 -27 c0 -12 -5 -7 -19 24 -11 24 -11 24 3 6 9 -11 16
-24 16 -30z m670 -27 c15 -28 5 -23 -15 7 -9 15 -12 23 -6 20 6 -4 16 -16 21
-27z m-175 -17 c-3 -3 -11 0 -18 7 -9 10 -8 11 6 5 10 -3 15 -9 12 -12z m-445
-27 c14 -19 14 -19 -2 -6 -10 7 -18 18 -18 24 0 6 1 8 3 6 1 -2 9 -13 17 -24z
m664 -14 c-2 -3 -12 3 -22 13 -16 17 -16 18 5 5 12 -7 20 -15 17 -18z m17 -28
c13 -16 12 -17 -3 -4 -17 13 -22 21 -14 21 2 0 10 -8 17 -17z m-626 -33 c3 -5
1 -10 -4 -10 -6 0 -11 5 -11 10 0 6 2 10 4 10 3 0 8 -4 11 -10z m665 -10 c0
-5 -5 -10 -11 -10 -5 0 -7 5 -4 10 3 6 8 10 11 10 2 0 4 -4 4 -10z m50 -80 c0
-13 -11 -13 -30 0 -12 8 -11 10 8 10 12 0 22 -4 22 -10z m183 -37 c-7 -2 -19
-2 -25 0 -7 3 -2 5 12 5 14 0 19 -2 13 -5z m227 -14 c21 -17 22 -19 3 -10 -12
6 -46 15 -75 20 l-53 9 50 1 c37 0 57 -5 75 -20z m-345 -6 c-27 -8 -56 -20
-63 -25 -7 -6 -15 -8 -18 -6 -13 13 46 43 87 45 l44 2 -50 -16z m-634 -40 c13
-16 12 -17 -3 -4 -10 7 -18 15 -18 17 0 8 8 3 21 -13z m974 -3 c-3 -5 -18 -10
-33 -9 l-27 1 25 8 c35 11 42 11 35 0z m-865 -117 c36 -37 58 -62 49 -55 -9 6
-20 8 -24 4 -5 -4 -5 -2 -2 4 4 7 -12 29 -36 50 -39 35 -64 64 -55 64 2 0 33
-30 68 -67z m629 35 c-34 -21 -109 -58 -109 -54 0 7 104 65 109 60 2 -2 2 -5
0 -6z m-179 -102 c0 -2 -8 -10 -17 -17 -16 -13 -17 -12 -4 4 13 16 21 21 21
13z m-310 -72 c0 -6 -6 -17 -14 -23 -12 -10 -14 -9 -12 6 2 10 -3 32 -12 48
l-15 30 27 -24 c14 -14 26 -30 26 -37z m200 -18 c0 -2 -8 -10 -17 -17 -16 -13
-17 -12 -4 4 13 16 21 21 21 13z m-30 -40 c0 -3 -4 -8 -10 -11 -5 -3 -10 -1
-10 4 0 6 5 11 10 11 6 0 10 -2 10 -4z m-40 -39 c0 -2 -10 -12 -22 -23 l-23
-19 19 23 c18 21 26 27 26 19z m-206 -32 c-4 -8 -11 -12 -16 -9 -6 4 -5 10 3
15 19 12 19 11 13 -6z m-43 -92 c-12 -20 -14 -14 -5 12 4 9 9 14 11 11 3 -2 0
-13 -6 -23z m169 17 c0 -5 -5 -10 -11 -10 -5 0 -7 5 -4 10 3 6 8 10 11 10 2 0
4 -4 4 -10z m40 -28 c0 -5 -7 -9 -15 -9 -8 0 -12 4 -9 9 3 4 9 8 15 8 5 0 9
-4 9 -8z m-13 -44 c-3 -8 -6 -5 -6 6 -1 11 2 17 5 13 3 -3 4 -12 1 -19z m-112
-66 c-15 -16 -16 -15 -4 12 7 15 15 23 17 16 3 -7 -3 -19 -13 -28z m114 31 c0
-5 -4 -17 -9 -28 -8 -18 -9 -17 -9 8 -1 15 4 27 9 27 6 0 10 -3 9 -7z m-252
-130 c-3 -10 -5 -4 -5 12 0 17 2 24 5 18 2 -7 2 -21 0 -30z m230 -96 c-2 -23
-3 -1 -3 48 0 50 1 68 3 42 2 -26 2 -67 0 -90z m-97 83 c0 -5 -2 -10 -4 -10
-3 0 -8 5 -11 10 -3 6 -1 10 4 10 6 0 11 -4 11 -10z m-143 -132 c-2 -24 -4 -5
-4 42 0 47 2 66 4 43 2 -24 2 -62 0 -85z m80 50 c-3 -8 -6 -5 -6 6 -1 11 2 17
5 13 3 -3 4 -12 1 -19z m-10 -50 c-3 -8 -6 -5 -6 6 -1 11 2 17 5 13 3 -3 4
-12 1 -19z m-10 -70 c-3 -7 -5 -2 -5 12 0 14 2 19 5 13 2 -7 2 -19 0 -25z
m-50 -35 c-3 -10 -5 -4 -5 12 0 17 2 24 5 18 2 -7 2 -21 0 -30z m263 -34 c0
-11 -4 -19 -10 -19 -5 0 -10 10 -10 23 0 12 -3 33 -6 47 -5 23 -5 23 10 -4 9
-15 16 -37 16 -47z m-71 11 c11 -24 11 -24 -3 -6 -9 11 -16 24 -16 30 0 12 5
7 19 -24z m-142 -62 c-3 -7 -5 -2 -5 12 0 14 2 19 5 13 2 -7 2 -19 0 -25z
m210 0 c-3 -8 -6 -5 -6 6 -1 11 2 17 5 13 3 -3 4 -12 1 -19z m16 -41 c4 3 7 1
7 -5 0 -17 -16 -15 -31 6 -12 15 -12 16 2 5 9 -7 19 -10 22 -6z m-227 -34
c-11 -11 -17 4 -9 23 7 18 8 18 11 1 2 -10 1 -21 -2 -24z"/>
</g>
</svg>
